<svg viewBox="0 0 44 44" xmlns="http://www.w3.org/2000/svg"><g fill="#fff"><path d="m29.49 39.23c.14-.08.28-.16.42-.24-.14.08-.28.17-.42.24z"/><path d="m30.62 38.54s-.1.07-.15.1c-.15.1-.3.19-.45.28-.03.02-.07.04-.11.06-.14.08-.28.16-.42.24 0 0-.02.01-.03.02-3.55 1.97-7.63 2.54-11.6 1.6-.99-.23-1.94-.55-2.85-.95-.18-.08-.37-.16-.55-.25-2.87-1.39-5.3-3.59-7.03-6.42-2.72-4.47-3.2-9.74-1.76-14.41l-1.49-2.41c-2.35 5.68-2.05 12.42 1.37 18.04 2.69 4.41 6.89 7.48 11.82 8.64 1.41.33 2.83.5 4.25.5 3.52 0 6.98-1.02 10.04-3 7.72-5 10.74-14.85 7.67-23.33l-1.55 2.5c1.75 7.01-.94 14.69-7.14 18.8z"/><path d="m12.63 9.51s.03-.01.04-.02c2.33-1.52 5.02-2.43 7.79-2.63.17-.01.35-.02.52-.03h.17.35.19.34.19c.16 0 .32.01.48.02.07 0 .14 0 .22.02.09 0 .19.01.28.02.09 0 .18.02.27.03.07 0 .15.02.22.03.1.01.2.02.29.04.06 0 .11.02.17.03.38.06.76.13 1.14.22.02 0 .04 0 .07.01.13.03.26.06.38.1.02 0 .04.01.06.02.56.15 1.12.32 1.66.53v.02s-3.81 1.35-3.81 1.35c-.56.2-.86.83-.67 1.41s.81.88 1.37.68l6.32-2.25s0 0 .01 0c.04-.01.08-.04.12-.06.02-.01.05-.02.07-.03.03-.02.07-.05.1-.07.02-.02.05-.03.07-.05s.04-.05.06-.07c.03-.03.05-.06.08-.09.01-.02.03-.04.04-.07.02-.04.05-.08.07-.12.01-.02.01-.05.02-.07.01-.04.03-.08.04-.12 0-.04.01-.07.02-.11s.01-.07.01-.11 0-.08 0-.12c0-.03 0-.07 0-.1 0-.05-.02-.09-.03-.13 0-.02 0-.05-.02-.07l-2.19-6.51c-.1-.3-.31-.53-.58-.65-.24-.11-.52-.13-.79-.04-.56.2-.86.83-.66 1.41l1.33 3.97s-.04-.01-.06-.02c-.16-.06-.32-.12-.49-.18-.06-.02-.13-.05-.2-.07-.12-.04-.24-.08-.36-.12-.07-.02-.14-.05-.21-.07-.12-.04-.24-.07-.36-.11-.07-.02-.13-.04-.2-.06-.15-.04-.29-.08-.44-.11-.04 0-.08-.02-.12-.03-.19-.05-.37-.09-.56-.13-.06-.01-.12-.02-.17-.03-.13-.03-.27-.05-.4-.08-.07-.01-.14-.02-.21-.04-.13-.02-.25-.04-.38-.06-.07-.01-.14-.02-.21-.03-.14-.02-.28-.03-.42-.05-.06 0-.11-.01-.17-.02-.19-.02-.39-.04-.58-.05-.04 0-.08 0-.12 0-.15-.01-.31-.02-.46-.02-.07 0-.13 0-.2 0-.13 0-.26 0-.39 0h-.21c-.13 0-.27 0-.41 0-.06 0-.12 0-.19 0-.2 0-.39.02-.59.03-3.12.23-6.18 1.21-8.81 2.92-.58.38-1.13.79-1.66 1.21l1.46 1.72c.42-.34.86-.66 1.33-.97z"/><path d="m15 39.9s0 0 0 0z"/><path d="m30.62 38.54s-.1.07-.15.1c.05-.03.1-.07.15-.1z"/><path d="m29.45 39.26s.02-.01.04-.02c-.01 0-.02.01-.04.02z"/><path d="m37.29 18.19 1.45-2.34 2.78-4.48c.32-.52.19-1.2-.3-1.55l-3.2-2.27c-.46-.33-1.09-.25-1.45.19l-8.83 10.41-.08-.73c-.03-.27-.15-.53-.35-.71-.08-.07-1.89-1.75-5.25-1.75h-.15c-3.38 0-5.19 1.67-5.27 1.75-.2.19-.32.44-.35.71l-.08.73-5.84-6.89-1.45-1.72-1.53-1.81c-.37-.43-.99-.52-1.45-.19l-3.15 2.24c-.49.35-.62 1.03-.3 1.54l2.3 3.73 1.41 2.28 7.29 11.81-.09 8.51c.18.1.36.19.55.28h.02c.19.1.38.19.56.27h.02c.2.1.4.18.6.26l.45.18.11-9.79c0-.22-.06-.44-.17-.63l-10.64-17.18 1.47-1.04 9.83 11.59c.14.16.62.64.74.76 1.14 1.02 2.7 1.65 4.38 1.8v9.96c0 .42.33.76.73.76s.73-.34.73-.76v-9.96c1.68-.14 3.24-.78 4.38-1.8.15-.13.48-.65.58-.76l9.83-11.59 1.51 1.07-10.66 17.15c-.12.19-.18.41-.17.63l.14 9.53.52-.24c.37-.17.74-.36 1.1-.56l.03-.02c.15-.08.3-.17.46-.27l.08-.05-.12-8.1 6.81-10.97zm-15.96 4.44c-1.26-.13-2.42-.59-3.29-1.31.05-.11.24-1.72.24-1.72.91.48 1.96.79 3.05.88zm.73-3.64c-1.24 0-2.49-.34-3.45-.94.58-.34 1.68-.82 3.32-.82h.06c1.75 0 2.89.53 3.45.87-.95.57-2.13.89-3.37.89zm.74 3.64v-2.15c1.03-.09 2.02-.37 2.89-.8 0 0 .2 1.6.28 1.74-.85.67-1.97 1.09-3.17 1.22z"/></g></svg>