<svg viewBox="0 0 44 44" xmlns="http://www.w3.org/2000/svg"><path d="m22 1.63c-11.25 0-20.37 9.12-20.37 20.37s9.12 20.37 20.37 20.37 20.37-9.12 20.37-20.37-9.12-20.37-20.37-20.37zm-8.54 36.02c.2-.65.34-1.29.34-1.99s.47-1.08.98-1.38c.88-.52.98-.66.87-1.78-.08-.79.03-1.5.42-2.17.15-.25.25-.56.3-.86.11-.57-.14-1.14-.64-1.42-.67-.37-1.37-.68-2.05-1.01-.29-.14-.58-.29-.88-.43-.31-.15-.47-.41-.6-.76-.15-.39-.42-.79-.73-1.03-.86-.65-1.71-1.3-2.49-2.08-.57-.58-1.27-.8-2.05-.46-.16.07-.49.02-.58-.12-.66-.93-1.09-1.97-.98-3.2.04-.41.19-.73.51-.95.31-.21.58-.48.9-.67.71-.45 1.15-1.12 1.47-1.94.55-1.41 1.59-2.21 2.88-2.65.29-.1.45-.28.52-.59.05-.27.1-.54.16-.82.06-.29.21-.34.42-.15.04.04.08.08.13.12.28.28.58.53.97.28.42-.27.83-.6.74-1.22-.07-.51-.22-1.02-.37-1.51-.23-.75-.14-1.03.5-1.43.12-.07.25-.14.36-.23.34-.28.31-.7-.06-.92-.13-.07-.26-.14-.42-.22.59-.3 1.2-.56 1.83-.79.25-.03.51-.04.78-.04-.14.46-.27.86-.37 1.27-.07.29-.15.6-.16.9-.02.57.3.83.78.66.2-.07.39-.17.56-.29.27-.19.54-.38.79-.6.75-.64 1.6-.95 2.55-1 1.2-.06 2.2-.59 2.96-1.64.06-.08.12-.15.18-.23 1.86.2 3.63.7 5.27 1.43-.52.28-1.03.56-1.53.83-.7.39-.9 1-.59 1.81.13.33.1.49-.14.78-.48.59-1.05.64-1.69.64-1.5 0-2.53 1.52-2.19 3.15.13.61.45 1.01 1.11 1.23-.7.84-1.33 1.61-1.98 2.36-.64.75-1.08 1.6-1.14 2.66-.04.59-.09 1.17-.17 1.75-.08.57 0 1.11.21 1.63.58 1.41 1.51 2.46 2.8 3.02.41.18.96.1 1.41 0 .55-.13 1.08-.4 1.61-.62.39-.16.6-.01.86.35.91 1.25 1.01 2.88 1.64 4.26.17.38.06 1.02-.1 1.46-.3.81-.35 1.55-.08 2.37.34 1.06.62 2.15.95 3.21.15.49.44.75.81.76-2.65 1.56-5.74 2.47-9.04 2.47-3.1 0-6.01-.79-8.54-2.18zm19.85-1.87c.56-.63 1.04-1.33 1.46-2.09.54-.99 1.04-2.01 1.55-3.02.29-.57.4-1.19.3-1.84-.1-.68 0-1.3.32-1.87.4-.71.81-1.41 1.27-2.06.52-.73.61-1.46.22-2.28-.06-.14-.12-.28-.17-.42-.1-.3-.07-.52.26-.63.48-.17.79-.56.94-1.1.08-.27.14-.54.21-.8.1.76.16 1.54.16 2.33 0 5.55-2.54 10.51-6.52 13.78z" fill="#fff" fill-rule="evenodd"/></svg>