<svg viewBox="0 0 44 44" xmlns="http://www.w3.org/2000/svg"><path d="m32.53 5.68c.29 0 .56.11.76.32s.32.48.32.76v3.06h8.61c.27 0 .53.1.73.28s.32.43.35.7c.01.13.28 3.26-2.01 5.77-1.81 1.98-4.62 2.99-8.38 2.99h-3.63c-.15 0-.29-.02-.43-.07s-.26-.13-.36-.23-.19-.22-.24-.36c-.06-.13-.09-.28-.09-.42s.03-.29.09-.42.14-.25.24-.36c.1-.1.23-.18.36-.23.14-.05.28-.08.43-.07h3.63c3.12 0 5.4-.77 6.78-2.28.96-1.05 1.29-2.29 1.41-3.13h-13.96c-2.07.2-5.1.95-7.83 3.43-1.43 1.3-2.58 2.89-3.37 4.66s-1.21 3.68-1.23 5.62v7.43c.01.16 0 .32-.06.47s-.14.29-.26.4c-.11.11-.25.2-.4.25s-.31.07-.47.06l-2.22.02c-3.27 0-4.55.81-5.03 1.29-.15.15-.28.34-.36.53.74-.02 1.76-.02 3.17-.02h9.52c5.2.01 10.41.03 12.66.04-.09-.21-.21-.4-.37-.56-.47-.48-1.75-1.3-5.02-1.3l-2.35-.02s-.08 0-.12-.01c-.03 0-.06 0-.09-.01-.05 0-.09-.03-.13-.04-.02 0-.05-.01-.07-.02-.05-.02-.09-.05-.14-.08l-.04-.02s-.09-.07-.13-.11l-.03-.02s-.07-.08-.11-.13c0-.01-.02-.02-.02-.03-.03-.05-.06-.1-.09-.16v-.02c-.03-.05-.05-.11-.06-.16 0-.02 0-.02-.01-.04-.01-.07-.02-.14-.02-.22v-3.03c-.02-.33-.53-9.75 5.42-10.36.14-.02.29 0 .43.03.14.04.27.1.38.19s.21.2.28.33.11.27.13.41c.01.14 0 .29-.04.43s-.11.27-.2.38-.21.2-.34.27-.27.11-.41.12c-3.83.39-3.49 8.07-3.48 8.14v.81s0 1.21 0 1.21h1.27c3.18 0 5.42.7 6.67 2.07.94 1.04.97 2.11.96 2.42v.62c0 .14-.03.28-.08.41s-.13.25-.23.35-.22.18-.35.23-.27.08-.41.08c-10.45-.04-26.24-.08-27.51-.02-.15.03-.31.02-.46-.02s-.29-.12-.41-.22-.22-.23-.28-.37c-.07-.14-.1-.3-.1-.45v-.62c-.01-.31.02-1.39.96-2.42 1.24-1.37 3.49-2.06 6.67-2.06h1.26v-6.08s0-.06 0-.09c0-.06 0-.12 0-.19v-1.83c0-2.29-.62-4.03-1.83-5.15-1.84-1.71-4.47-1.52-4.5-1.52s-.06 0-.09 0h-4.41c-.29 0-.56-.11-.76-.32-.2-.2-.32-.48-.32-.76v-9.45c0-.29.11-.56.32-.76.2-.2.48-.32.76-.32zm-4.7 9.09c.29-.01.57.09.78.28s.34.46.35.75-.09.57-.28.78-.46.34-.75.35c-2.8.12-4.84 2.02-5.15 2.32l-.04.04s-.04.04-.06.05c-2.66 2.42-3.05 7.51-3.05 10.33v3.33c0 .29-.11.56-.32.76-.2.2-.48.32-.76.32s-.56-.11-.76-.32c-.2-.2-.32-.48-.32-.76v-3.33c0-3.87.65-9.07 3.74-11.9.33-.33 2.92-2.85 6.64-3.01zm3.63-6.93h-28.61v7.29h3.25c.46-.03 3.69-.13 6.09 2.09.69.64 1.24 1.41 1.64 2.29s.24-.53.24-.53c.82-1.78 1.96-3.39 3.36-4.76l.44-.41c.76-.69 1.58-1.3 2.46-1.83h-14.93c-.29 0-.56-.11-.76-.32-.2-.2-.32-.48-.32-.76s.11-.56.32-.76c.2-.2.48-.32.76-.32h26.05v-1.98z" fill="#fff" fill-rule="evenodd"/></svg>