<svg viewBox="0 0 44 44" xmlns="http://www.w3.org/2000/svg"><g fill="#fff"><path d="m22 1.57c-11.28 0-20.43 9.14-20.43 20.43s9.15 20.43 20.43 20.43 20.43-9.15 20.43-20.43-9.15-20.43-20.43-20.43zm0 38.31c-9.87 0-17.88-8.01-17.88-17.88s8.01-17.88 17.88-17.88 17.88 8 17.88 17.88-8 17.88-17.88 17.88z"/><path d="m15.73 12.11-.02 3.13 2.38.02v19.31h6.4v-25.14h-5.67z"/><path d="m32.73 21.87c-1.02 0-1.84.81-1.84 1.8s.83 1.8 1.84 1.8 1.84-.81 1.84-1.8-.83-1.8-1.84-1.8zm.57 2.36c-.15.15-.36.23-.57.23-.45 0-.81-.36-.81-.79 0-.21.09-.42.24-.56.15-.15.36-.23.57-.23.21 0 .42.08.57.23s.24.35.24.57c0 .21-.09.42-.24.57z"/><path d="m32.56 17.81-5.72 7.66h1.33l5.73-7.66z"/><path d="m29.77 19.64c0-.99-.83-1.8-1.84-1.8s-1.84.81-1.84 1.8.83 1.8 1.84 1.8 1.84-.81 1.84-1.8zm-2.65 0c0-.21.09-.42.24-.56.15-.15.36-.23.57-.23s.42.08.57.23.24.35.24.56-.09.42-.24.57-.36.23-.57.23c-.45 0-.81-.36-.81-.79z"/></g></svg>