<svg viewBox="0 0 44 44" xmlns="http://www.w3.org/2000/svg"><g fill="#fff"><path d="m27.75 30.27h-.02c-.06-.26-.2-.49-.4-.66-.25-.21-.56-.32-.88-.29-.33.02-.62.17-.84.42-.21.25-.32.57-.29.89v.18c.13 1.49.24 3.03-.03 5.75-.16 1.59-.65 2.72-1.45 3.37-.91.74-2 .64-2 .64-.04 0-.11-.01-.15-.01-.29 0-2.84-.21-3.29-4.63-.1-.94-.31-2.42-.56-4.1-.5-3.4-1.17-8-1.46-12.05l.78.78c.46.46 1.28.46 1.72 0 .48-.48.48-1.26 0-1.74l-2.99-3.02c-.46-.46-1.28-.46-1.72 0l-2.98 3.01c-.48.48-.48 1.26 0 1.74.46.47 1.27.47 1.73 0l1.01-1.02c.28 4.24.98 9.08 1.5 12.64.23 1.6.45 3.12.54 4 .54 5.34 3.93 6.81 5.63 6.84.08 0 .2.02.36.02.72 0 2.11-.15 3.37-1.16 1.35-1.08 2.15-2.78 2.38-5.07.3-2.91.17-4.63.06-6.18l-.03-.37z"/><path d="m30.81 22.89c-.23-.23-.54-.36-.86-.36-.33 0-.63.13-.86.36l-.84.85c.29-1.34.62-2.21.93-3.06l.02-.05c.51-1.37 1.04-2.79 1.39-5.84.54-4.71-.49-9.05-2.76-11.61-1.27-1.44-2.83-2.2-4.5-2.2-4.03 0-8.09 5.15-9.26 11.72-.12.67.32 1.31.99 1.43.32.06.65-.01.91-.2.27-.19.45-.47.5-.79.83-4.68 3.79-9.69 6.86-9.69 1.21 0 2.13.75 2.68 1.38 1.79 2.02 2.61 5.74 2.16 9.7-.31 2.74-.77 3.96-1.25 5.26-.4 1.07-.81 2.17-1.17 4.04l-.9-.91c-.23-.23-.54-.36-.86-.36-.33 0-.63.13-.86.36-.47.48-.47 1.26 0 1.74l2.99 3.01c.23.23.54.36.86.36s.63-.13.86-.36l2.99-3.01c.47-.48.47-1.26 0-1.74z"/></g></svg>